<?xml version="1.0" encoding="iso-8859-1"?>
<!-- Generator: Adobe Illustrator 25.0.0, SVG Export Plug-In . SVG Version: 6.00 Build 0)  -->
<svg version="1.1" id="Layer_1" xmlns="http://www.w3.org/2000/svg" xmlns:xlink="http://www.w3.org/1999/xlink" x="0px" y="0px"
	 viewBox="0 0 646.172 300.014" style="enable-background:new 0 0 646.172 300.014;" xml:space="preserve">
<g>
	<g>
		<path style="fill:#FFFFFF;" d="M111.627,160.713H96.505v90.936h35.676v-70.4C132.181,169.917,122.98,160.713,111.627,160.713z"/>
		<path style="fill:#FFFFFF;" d="M76.921,160.713H41.188v35.735h35.666C76.876,184.537,76.899,172.628,76.921,160.713z"/>
		<path style="fill:#FFFFFF;" d="M77.069,81.118h3.052c20.101,0,40.202-0.04,60.306,0.054c4.158,0.02,8.348,0.339,12.466,0.918
			c12.357,1.759,23.418,6.775,32.74,14.994c18.736,16.49,26.896,37.227,23.079,62.104c-0.074,0.505-0.171,1.012-0.265,1.516
			c-3.218,18.399-13.084,32.851-28.506,43.519c-3.705,2.565-7.786,4.549-11.81,6.869v37.4c1.365-0.339,2.525-0.581,3.648-0.937
			c19.824-6.082,36.594-16.901,49.735-32.926c0.952-1.177,1.89-2.357,2.805-3.537c11.833-15.535,18.813-32.379,20.816-50.388
			c1.217-10.967,0.601-22.404-1.929-34.234c-5.503-25.923-19.597-46.551-41.066-62.032c-17.032-12.295-36.181-18.961-57.199-19.166
			c-22.669-0.205-45.354-0.186-68.02-0.129c-11.269,0.017-22.537,0.035-33.789,0.035c-0.673,0-1.328,0.114-1.887,0.188v79.381
			h35.824V81.118z"/>
		<rect x="41.185" y="219.261" style="fill:#FFFFFF;" width="35.733" height="35.649"/>
		<path style="fill:#FFFFFF;" d="M143.131,156.958c-10.969-15.271-30.106-14.38-31.392-14.299H97.227v-35.928h47.833
			c20.297,0,36.757,16.977,36.757,37.907c0,10.465-4.106,19.94-10.762,26.787c-5.756,5.934-13.411,9.911-21.946,10.861
			C149.502,179.515,150.862,167.725,143.131,156.958"/>
	</g>
	<g>
		<g>
			<path style="fill:#FFFFFF;" d="M319.368,114.07c0,8.859-6.088,14.324-15.915,14.324h-8.438v11.62h-6.943V99.746h15.381
				C313.28,99.746,319.368,105.154,319.368,114.07z M312.372,114.07c0-5.062-3.15-7.996-9.239-7.996h-8.117v15.992h8.117
				C309.221,122.066,312.372,119.132,312.372,114.07z"/>
			<path style="fill:#FFFFFF;" d="M358.084,140.014l-7.638-11.793c-0.48,0.058-0.961,0.058-1.441,0.058h-8.438v11.735h-6.942V99.746
				h15.381c9.826,0,15.915,5.408,15.915,14.324c0,6.098-2.884,10.584-7.958,12.713l8.599,13.231H358.084z M348.684,106.074h-8.118
				v16.049h8.118c6.088,0,9.239-2.991,9.239-8.053C357.923,109.008,354.772,106.074,348.684,106.074z"/>
			<path style="fill:#FFFFFF;" d="M407.479,133.743v6.271h-28.038V99.746h27.291v6.271h-20.348v10.47h18.051v6.155h-18.051v11.102
				H407.479z"/>
			<path style="fill:#FFFFFF;" d="M418.851,135.757l2.403-5.81c2.991,2.588,7.744,4.429,12.337,4.429
				c5.821,0,8.278-2.243,8.278-5.235c0-8.686-22.217-2.991-22.217-17.948c0-6.5,4.807-12.023,15.061-12.023
				c4.485,0,9.186,1.266,12.443,3.567l-2.189,5.81c-3.365-2.128-7.05-3.164-10.308-3.164c-5.768,0-8.118,2.416-8.118,5.465
				c0,8.571,22.164,2.991,22.164,17.775c0,6.443-4.86,11.965-15.114,11.965C427.77,140.589,421.949,138.633,418.851,135.757z"/>
			<path style="fill:#FFFFFF;" d="M469.958,106.074h-12.39v-6.328h31.723v6.328H476.9v33.94h-6.942V106.074z"/>
			<path style="fill:#FFFFFF;" d="M501.303,99.746h6.942v40.268h-6.942V99.746z"/>
			<path style="fill:#FFFFFF;" d="M550.648,119.42h6.568v16.05c-3.898,3.394-9.346,5.12-14.633,5.12
				c-11.589,0-20.134-8.687-20.134-20.709c0-12.023,8.545-20.709,20.24-20.709c6.249,0,11.482,2.244,15.007,6.558l-4.379,4.602
				c-2.938-3.164-6.302-4.602-10.308-4.602c-7.957,0-13.564,5.81-13.564,14.151c0,8.168,5.607,14.151,13.512,14.151
				c2.67,0,5.287-0.576,7.69-2.071V119.42z"/>
			<path style="fill:#FFFFFF;" d="M601.165,133.743v6.271h-28.038V99.746h27.291v6.271H580.07v10.47h18.051v6.155H580.07v11.102
				H601.165z"/>
		</g>
		<g>
			<g>
				<path style="fill:#FFFFFF;" d="M288.071,157.566h17.439c13.977,0,23.42,9.344,23.42,22.398s-9.443,22.398-23.42,22.398h-17.439
					V157.566z M305.26,199.42c12.464,0,20.461-8.064,20.461-19.455c0-11.389-7.996-19.453-20.461-19.453h-13.977v38.908H305.26z"/>
				<path style="fill:#FFFFFF;" d="M385.769,199.42v2.943H355.36v-44.796h29.465v2.945h-26.253v17.663h23.482v2.878h-23.482v18.367
					H385.769z"/>
				<path style="fill:#FFFFFF;" d="M408.297,196.604l1.447-2.433c3.021,3.2,8.625,5.631,14.544,5.631
					c8.814,0,12.717-3.903,12.717-8.766c0-13.439-27.511-5.376-27.511-21.886c0-6.336,4.785-11.904,15.612-11.904
					c4.849,0,9.884,1.537,13.284,4.033l-1.196,2.623c-3.651-2.56-8.121-3.776-12.088-3.776c-8.561,0-12.402,4.033-12.402,8.959
					c0,13.439,27.511,5.503,27.511,21.758c0,6.336-4.973,11.839-15.864,11.839C417.802,202.683,411.507,200.187,408.297,196.604z"/>
				<path style="fill:#FFFFFF;" d="M466.394,157.566h3.212v44.796h-3.212V157.566z"/>
				<path style="fill:#FFFFFF;" d="M531.733,180.157h3.086v16.767c-3.967,3.838-9.695,5.759-15.738,5.759
					c-13.284,0-23.043-9.664-23.043-22.718s9.759-22.718,23.105-22.718c6.359,0,11.961,2.048,15.864,6.143l-2.014,2.177
					c-3.841-3.84-8.437-5.313-13.789-5.313c-11.457,0-19.956,8.448-19.956,19.71c0,11.199,8.499,19.71,19.956,19.71
					c4.66,0,8.94-1.153,12.528-4.096V180.157z"/>
				<path style="fill:#FFFFFF;" d="M600.094,157.566v44.796h-2.645l-30.03-38.908v38.908h-3.212v-44.796h2.709l29.966,38.908
					v-38.908H600.094z"/>
			</g>
		</g>
	</g>
</g>
</svg>
