<?xml version="1.0" encoding="iso-8859-1"?>
<!-- Generator: Adobe Illustrator 25.0.0, SVG Export Plug-In . SVG Version: 6.00 Build 0)  -->
<svg version="1.1" id="Layer_1" xmlns="http://www.w3.org/2000/svg" xmlns:xlink="http://www.w3.org/1999/xlink" x="0px" y="0px"
	 viewBox="0 0 2568.19 1859.53" style="enable-background:new 0 0 2568.19 1859.53;" xml:space="preserve">
<g>
	<path d="M551.023,1038.906c-2.954,2.509-5.903,5.089-8.853,7.746c-1.476,1.182-2.876,2.361-4.205,3.54
		c-0.148,0-0.221,0.077-0.221,0.221c-1.919,4.282-3.762,8.486-5.532,12.615c-0.149,0.149-0.149,0.37,0,0.663
		c0.145,0.299,0.366,0.443,0.663,0.443c18.735,2.657,36.958,4.392,54.662,5.201c17.705,0.813,33.12,1.293,46.253,1.439
		c2.801,0.149,5.533,0.22,8.189,0.22c43.964-0.144,87.781-2.801,131.455-7.966c0.885,0,1.549,0.333,1.992,0.996
		c0.443,0.665,0.553,1.405,0.332,2.214c-0.221,0.813-0.774,1.293-1.66,1.439c-35.114,4.723-70.34,8.374-105.673,10.954
		c-35.336,2.584-70.707,2.401-106.116-0.553c-10.329-1.031-21.764-2.655-34.303-4.869c-0.443-0.146-0.813,0-1.106,0.443
		c-5.312,10.92-10.81,20.288-16.488,28.106c-5.681,7.821-11.325,12.979-16.929,15.49h-0.221c-3.838,0.885-7.23,0.11-10.18-2.324
		c-2.953-2.432-4.724-5.566-5.312-9.405c-0.591-3.834-0.221-7.486,1.107-10.954c1.327-3.466,3.022-6.674,5.09-9.627
		c4.571-6.048,9.516-11.802,14.828-17.261c0.293-0.146,0.366-0.366,0.22-0.665c-0.148-0.293-0.37-0.514-0.663-0.663
		c-14.461-3.983-27.995-9.368-40.61-16.155c-12.615-6.784-22.94-15.305-30.983-25.562c-8.039-10.251-12.428-22.606-13.168-37.068
		c1.477-20.211,7.711-39.426,18.701-57.65c10.993-18.22,24.194-35.15,39.613-50.789c15.415-15.636,30.503-29.655,45.257-42.048
		c27.736-22.868,57.428-42.969,89.075-60.306c31.647-17.334,65.247-29.396,100.804-36.183c11.509-2.064,23.161-3.171,34.967-3.32
		c11.802-0.144,23.382,1.549,34.744,5.091c14.458,5.016,24.417,13.465,29.877,25.339c5.456,11.877,5.456,24.897,0,39.06
		c-5.311,12.984-12.359,24.861-21.135,35.63c-8.78,10.771-18.112,20.951-27.995,30.539c-19.475,18.148-39.578,35.486-60.305,52.007
		c-20.73,16.525-41.716,32.753-62.961,48.687C605.907,994.721,578.168,1016.481,551.023,1038.906z M423.109,962.555
		c-6.048,19.182-5.826,35.226,0.664,48.134c6.494,12.912,17.151,23.275,31.978,31.094c14.828,7.821,31.83,13.721,51.011,17.704
		c0.294,0,0.516-0.073,0.664-0.222c5.456-5.013,11.065-9.809,16.819-14.384l0.221-0.222c0.588-1.327,1.252-2.655,1.992-3.983
		c11.359-23.752,22.203-47.725,32.531-71.923c9.737-23.901,19.178-48.318,28.327-73.252c9.146-24.932,16.377-49.573,21.688-73.917
		c0.146-0.146,0.146-0.293,0-0.443c-0.297-1.622,0.073-2.911,1.107-3.873c1.03-0.957,2.248-1.362,3.652-1.216
		c1.4,0.148,2.469,0.96,3.209,2.434c0,0.148,0,0.297,0,0.443c0.145,6.345-1.106,12.835-3.762,19.475
		c-1.034,2.952-1.847,5.753-2.434,8.409c-12.1,37.622-24.935,75.023-38.507,112.201c-1.625,4.28-3.174,8.631-4.647,13.057
		c-1.771,4.574-3.984,10.477-6.64,17.704c-3.54,10.18-7.745,21.616-12.614,34.302c-0.148,0.443-0.076,0.775,0.221,0.996
		c0.293,0.222,0.663,0.187,1.106-0.11c5.015-3.686,9.959-7.449,14.828-11.286c9.589-7.376,19.177-14.679,28.77-21.909
		c30.54-22.425,60.378-45.7,89.518-69.821c29.136-24.123,56.101-50.492,80.887-79.116c18.734-23.311,28.25-41.495,28.548-54.552
		c0.293-13.057-5.681-22.055-17.926-27c-12.247-4.94-27.628-6.784-46.142-5.532c-18.517,1.255-37.217,4.686-56.101,10.291
		c-30.097,9.151-62.114,23.497-96.046,43.043c-33.935,19.551-64.88,42.567-92.837,69.048
		c-27.961,26.485-47.986,54.552-60.085,84.207V962.555z M495.476,1096.888c1.179-1.771,2.358-3.542,3.54-5.312
		c0.294-0.295,0.367-0.589,0.221-0.885c-0.148-0.293-0.37-0.443-0.663-0.443c-0.298,0-0.591,0.149-0.886,0.443
		c-0.591,0.59-1.107,1.328-1.549,2.212c-0.298,0.443-0.591,0.886-0.886,1.328c-1.327,1.919-2.289,3.983-2.877,6.197
		C493.408,1099.397,494.442,1098.215,495.476,1096.888z"/>
	<path d="M899.577,1046.652c0.443-0.738,1.069-1.069,1.881-0.998c0.809,0.077,1.439,0.443,1.881,1.108
		c0.443,0.663,0.443,1.439,0,2.324c-0.886,1.182-1.77,2.434-2.656,3.761c-4.574,7.083-10.034,14.606-16.376,22.574
		c-6.346,7.966-13.354,14.421-21.024,19.363c-7.673,4.945-15.935,6.457-24.786,4.538c-7.082-3.393-12.32-8.631-15.712-15.714
		c-3.396-7.081-5.681-14.827-6.861-23.236c-0.297-1.179-0.996-1.881-2.102-2.104c-1.107-0.22-1.957,0.187-2.546,1.218v0.22
		c-2.213,3.396-4.353,7.01-6.418,10.845c-3.983,7.524-8.375,14.35-13.168,20.469c-4.796,6.124-10.733,9.704-17.815,10.735
		c-9.146-0.886-13.904-6.233-14.274-16.045c-0.367-9.81,2.029-21.136,7.192-33.971c5.163-12.835,11.469-24.194,18.922-34.081
		c7.448-9.883,14.347-15.342,20.691-16.376c3.243-1.031,6.895-0.665,10.955,1.106c4.056,1.769,7.228,4.316,9.516,7.634
		c2.286,3.32,2.397,6.827,0.333,10.513c2.801,1.625,4.056,4.502,3.762,8.631c-3.247,16.818-3.617,31.464-1.106,43.929
		c2.506,12.469,8.112,19.292,16.819,20.471c8.703,1.182,20.802-6.563,36.293-23.238
		C889.177,1062.954,894.709,1055.061,899.577,1046.652z M777.418,1080.511c6.639-8.998,12.835-19.032,18.589-30.098
		c5.456-10.324,11.286-19.841,17.482-28.547c0.146-0.295,0.256-0.736,0.333-1.328c0.073-0.589,0.073-1.142,0-1.659
		c-0.076-0.516-0.37-0.848-0.886-0.996c-0.518-0.146-1.366,0.075-2.545,0.663c-8.116,4.723-15.236,13.687-21.356,26.888
		C782.912,1058.639,779.04,1070.331,777.418,1080.511z"/>
	<path d="M1048.738,1044.218c1.181,0.59,1.803,1.476,1.881,2.655c0.071,1.182-0.26,2.214-0.996,3.098
		c-6.345,9.295-14.35,17.523-24.013,24.676c-9.663,7.157-19.475,11.806-29.433,13.943c-9.958,2.139-18.554,0.331-25.781-5.423
		c-7.231-5.753-11.509-16.818-12.836-33.196c0-0.293,0-0.587,0-0.884c0-1.474-0.076-3.172-0.221-5.091
		c-0.148-1.915-0.332-3.686-0.553-5.312c-0.221-1.622-0.481-2.655-0.774-3.098c-3.247-1.771-7.524,0.96-12.836,8.189
		c-5.311,7.23-10.993,15.933-17.041,26.113c-5.017,8.559-9.813,16.121-14.385,22.685c-4.574,6.565-8.409,10.29-11.508,11.176
		c-5.014,0-8.261-1.771-9.737-5.312c-1.473-3.542-1.992-7.669-1.549-12.394c0.443-4.719,1.106-8.852,1.992-12.392
		c0-0.443,0.076-0.809,0.221-1.106c4.132-19.327,9.737-38.137,16.819-56.433c0.145-0.293,0.256-0.553,0.332-0.775
		c0.073-0.221,0.145-0.404,0.221-0.553c0.073-0.144,0.183-0.366,0.332-0.663v-0.222c0.146-0.293,0.221-0.514,0.221-0.663
		c0.146-2.358,1.107-4.389,2.877-6.085c1.77-1.695,3.835-2.58,6.196-2.657c2.359-0.073,4.499,0.996,6.418,3.21
		c0.736,0.884,1.289,1.956,1.66,3.208c0.366,1.255,0.477,2.401,0.332,3.43c-0.74,5.312-1.992,10.55-3.762,15.714
		c-0.592,2.066-1.183,4.131-1.771,6.195c-1.625,5.904-3.91,14.203-6.86,24.897c-2.953,10.699-5.239,19.142-6.86,25.339
		c1.327-1.915,3.835-5.825,7.524-11.729c6.048-9.881,13.091-20.544,21.135-31.978c8.039-11.432,14.938-18.479,20.691-21.136
		c5.015-1.472,9.551-0.699,13.61,2.324c4.056,3.026,6.453,6.971,7.193,11.839c0.886,5.754,0.886,11.436,0,17.041
		c-1.476,7.083-1.184,13.87,0.886,20.36c4.278,5.902,9.773,8.375,16.488,7.413c6.711-0.957,13.422-3.503,20.136-7.634
		c6.714-4.129,12.063-8.112,16.047-11.951c5.31-4.426,9.659-9.588,13.056-15.492c0.444-0.736,1.106-1.252,1.992-1.549
		C1046.967,1043.702,1047.852,1043.775,1048.738,1044.218z M901.349,1103.526l-1.771,0.222c0.146,0,0.294,0,0.443,0h0.221
		C900.537,1103.603,900.907,1103.526,901.349,1103.526z"/>
	<path d="M1139.693,1044.659c1.03,0.741,1.549,1.661,1.549,2.767s-0.443,2.031-1.328,2.767
		c-6.051,7.081-13.537,14.683-22.462,22.795c-8.928,8.114-18.479,14.937-28.659,20.469c-10.178,5.534-20.138,7.932-29.876,7.193
		c-10.92-3.391-17.371-9.515-19.363-18.367c-1.993-8.854-1.474-18.442,1.549-28.77c3.021-10.326,6.528-19.327,10.511-27
		c1.917-3.243,4.389-4.902,7.413-4.979c3.023-0.073,5.534,1.033,7.525,3.32c1.992,2.289,2.395,5.276,1.216,8.962
		c-1.327,4.725-2.952,9.517-4.869,14.386c-1.625,4.28-3.098,8.559-4.426,12.835c-0.148,0.74-0.297,1.549-0.443,2.434
		c-2.655,6.937-3.318,13.797-1.992,20.581c2.214,4.426,5.754,6.86,10.623,7.303c4.869,0.443,9.441-0.22,13.721-1.992
		c15.638-6.784,29.435-16.375,41.384-28.77c4.719-4.719,9.074-9.81,13.057-15.269c0.587-0.736,1.362-1.179,2.324-1.328
		C1138.105,1043.849,1138.954,1044.072,1139.693,1044.659z M1079.055,989.996c-3.54,3.69-6.787,5.424-9.736,5.201
		c-2.954-0.221-4.759-1.771-5.424-4.646c-0.663-2.877,0.626-6.38,3.873-10.513c3.542-3.686,6.786-5.422,9.737-5.201
		c2.95,0.222,4.759,1.771,5.422,4.648C1083.593,982.363,1082.3,985.869,1079.055,989.996z"/>
	<path d="M1263.181,1046.652c0.443-0.738,1.069-1.069,1.881-0.998c0.809,0.077,1.439,0.443,1.881,1.108
		c0.443,0.663,0.443,1.439,0,2.324c-0.885,1.182-1.771,2.434-2.655,3.761c-4.575,7.083-10.036,14.606-16.377,22.574
		c-6.345,7.966-13.354,14.421-21.024,19.363c-7.673,4.945-15.935,6.457-24.786,4.538c-7.083-3.393-12.321-8.631-15.712-15.714
		c-3.396-7.081-5.681-14.827-6.86-23.236c-0.299-1.179-0.996-1.881-2.104-2.104c-1.106-0.22-1.956,0.187-2.545,1.218v0.22
		c-2.212,3.396-4.353,7.01-6.417,10.845c-3.983,7.524-8.375,14.35-13.168,20.469c-4.796,6.124-10.733,9.704-17.814,10.735
		c-9.147-0.886-13.906-6.233-14.275-16.045c-0.366-9.81,2.031-21.136,7.193-33.971c5.162-12.835,11.469-24.194,18.922-34.081
		c7.447-9.883,14.347-15.342,20.691-16.376c3.244-1.031,6.896-0.665,10.956,1.106c4.056,1.769,7.227,4.316,9.515,7.634
		c2.287,3.32,2.397,6.827,0.333,10.513c2.801,1.625,4.056,4.502,3.763,8.631c-3.247,16.818-3.617,31.464-1.108,43.929
		c2.507,12.469,8.112,19.292,16.82,20.471c8.703,1.182,20.801-6.563,36.293-23.238
		C1252.78,1062.954,1258.312,1055.061,1263.181,1046.652z M1141.022,1080.511c6.638-8.998,12.835-19.032,18.589-30.098
		c5.455-10.324,11.286-19.841,17.483-28.547c0.144-0.295,0.256-0.736,0.331-1.328c0.073-0.589,0.073-1.142,0-1.659
		c-0.075-0.516-0.37-0.848-0.884-0.996c-0.519-0.146-1.367,0.075-2.546,0.663c-8.116,4.723-15.234,13.687-21.354,26.888
		C1146.516,1058.639,1142.643,1070.331,1141.022,1080.511z"/>
	<path d="M1616.163,782.856c11.951,15.789,18.922,33.012,20.914,51.675c1.992,18.666,0.589,37.438-4.204,56.321
		c-4.796,18.886-11.252,36.665-19.365,53.334c-8.265,17.41-19.772,36.516-34.524,57.319c-14.754,20.803-31.611,40.719-50.567,59.751
		c-18.961,19.032-38.879,34.634-59.753,46.806c-20.878,12.172-41.644,18.259-62.298,18.259c-17.704-3.247-29.36-10.81-34.965-22.685
		c-5.61-11.873-7.193-25.816-4.758-41.825c2.434-16.007,6.75-31.793,12.945-47.359c6.197-15.565,12.097-28.659,17.706-39.282
		c13.278-25.523,28.105-50.087,44.482-73.694c0.886-1.179,1.771-2.358,2.655-3.54c6.933-9.883,14.126-19.621,21.579-29.212
		c7.447-9.59,15.673-18.515,24.674-26.778c4.278-3.836,8.112-5.975,11.509-6.418c2.064-0.736,4.129-0.736,6.195,0
		c3.542,1.625,5.384,4.28,5.534,7.966c0.144,1.771-0.222,3.396-1.106,4.869c-38.214,87.194-71.632,176.158-100.252,266.893
		c11.653-1.622,22.868-5.532,33.638-11.729c10.767-6.197,20.874-12.835,30.318-19.918c0.885-0.736,1.771-1.399,2.657-1.992
		c14.457-10.767,29.986-25.117,46.584-43.043s32.31-37.954,47.139-60.084c14.827-22.132,26.739-44.85,35.74-68.162
		c8.998-23.309,13.057-45.771,12.172-67.387c-0.886-21.612-8.779-40.831-23.68-57.65c-17.558-15.785-39.208-24.489-64.953-26.115
		c-25.747-1.622-52.747,1.515-80.997,9.405c-28.254,7.895-54.959,18.148-80.112,30.763c-25.156,12.613-45.92,25.267-62.298,37.952
		c-14.307,10.33-28.583,22.905-42.823,37.734c-14.234,14.827-26.149,30.982-35.74,48.465c-9.588,17.483-14.496,35.297-14.717,53.446
		c-0.22,18.147,6.677,35.705,20.691,52.671c4.575,5.166,9.666,9.592,15.271,13.278c1.919,1.625,2.694,3.395,2.322,5.312
		c-0.366,1.919-1.437,3.357-3.208,4.316c-1.771,0.96-3.686,0.628-5.754-0.996c-18.147-16.08-29.026-34.819-32.643-56.213
		c-3.613-21.39-0.256-42.933,10.07-64.62c16.231-32.605,38.251-60.71,66.059-84.317c27.813-23.604,57.795-43.596,89.961-59.974
		c16.818-8.555,35.886-16.598,57.207-24.121c21.317-7.525,43.116-12.727,65.395-15.602c22.276-2.877,43.449-1.734,63.514,3.43
		C1584.441,755.269,1601.702,766.186,1616.163,782.856z M1371.622,1056.61c-2.212,11.656-1.515,23.312,2.102,34.967
		c3.613,11.656,11.542,19.402,23.791,23.236c2.507,0.443,5.091,0.665,7.746,0.665c19.178-69.636,41.014-138.462,65.506-206.478
		c2.95-7.966,5.9-15.933,8.852-23.901c0.443-1.622,0.256-2.987-0.553-4.093c-0.813-1.106-1.919-1.805-3.318-2.102
		c-1.405-0.295-2.694,0.148-3.873,1.327c-23.458,24.641-45.001,53.853-64.622,87.637
		C1387.629,1001.654,1375.751,1031.237,1371.622,1056.61z"/>
	<path d="M1737.216,1046.652c0.443-0.738,1.069-1.069,1.881-0.998c0.809,0.077,1.439,0.443,1.881,1.108
		c0.443,0.663,0.443,1.439,0,2.324c-0.885,1.182-1.771,2.434-2.655,3.761c-4.575,7.083-10.036,14.606-16.377,22.574
		c-6.345,7.966-13.354,14.421-21.024,19.363c-7.673,4.945-15.935,6.457-24.786,4.538c-7.083-3.393-12.321-8.631-15.712-15.714
		c-3.396-7.081-5.681-14.827-6.86-23.236c-0.299-1.179-0.996-1.881-2.104-2.104c-1.106-0.22-1.956,0.187-2.545,1.218v0.22
		c-2.212,3.396-4.353,7.01-6.417,10.845c-3.983,7.524-8.375,14.35-13.168,20.469c-4.796,6.124-10.733,9.704-17.814,10.735
		c-9.147-0.886-13.906-6.233-14.275-16.045c-0.366-9.81,2.031-21.136,7.193-33.971c5.162-12.835,11.469-24.194,18.922-34.081
		c7.447-9.883,14.347-15.342,20.691-16.376c3.243-1.031,6.896-0.665,10.956,1.106c4.056,1.769,7.227,4.316,9.515,7.634
		c2.287,3.32,2.397,6.827,0.333,10.513c2.801,1.625,4.056,4.502,3.763,8.631c-3.247,16.818-3.617,31.464-1.108,43.929
		c2.507,12.469,8.112,19.292,16.82,20.471c8.703,1.182,20.802-6.563,36.293-23.238
		C1726.815,1062.954,1732.347,1055.061,1737.216,1046.652z M1615.057,1080.511c6.638-8.998,12.835-19.032,18.589-30.098
		c5.456-10.324,11.286-19.841,17.483-28.547c0.144-0.295,0.256-0.736,0.331-1.328c0.073-0.589,0.073-1.142,0-1.659
		c-0.075-0.516-0.37-0.848-0.884-0.996c-0.519-0.146-1.367,0.075-2.546,0.663c-8.116,4.723-15.234,13.687-21.354,26.888
		C1620.551,1058.639,1616.678,1070.331,1615.057,1080.511z"/>
	<path d="M1827.73,1034.48c0.736-0.738,1.549-0.996,2.434-0.775c0.886,0.221,1.512,0.74,1.881,1.549
		c0.366,0.813,0.183,1.588-0.553,2.324c-6.64,6.494-14.827,11.103-24.564,13.831c-9.737,2.733-18.518,0.923-26.335-5.422
		c-4.282-5.013-6.64-10.623-7.083-16.818c-0.149-1.328-0.813-2.137-1.992-2.434c-1.182-0.295-2.141,0.148-2.877,1.327
		c-2.804,5.312-5.166,9.96-7.081,13.943c-0.149,0.443-0.372,0.885-0.665,1.328c-5.902,12.984-10.401,26.556-13.5,40.719
		c-0.297,1.328-0.59,2.804-0.884,4.426c-0.592,2.804-1.405,5.461-2.434,7.968c-1.035,2.509-2.954,4.426-5.754,5.752
		c-3.244,1.035-6.158,0.519-8.742-1.549c-2.58-2.064-3.576-4.792-2.987-8.189c3.54-21.39,7.966-42.634,13.278-63.735
		c0-0.295,0.073-0.516,0.222-0.665c1.622-7.374,4.056-14.457,7.301-21.244c1.917-3.393,4.428-5.015,7.525-4.869
		c3.098,0.148,5.642,1.439,7.636,3.873c1.992,2.434,2.175,5.422,0.553,8.962c-4.426,11.363-7.895,22.944-10.402,34.744
		c1.474-3.686,2.95-7.374,4.426-11.064c3.099-8.112,6.419-16.155,9.96-24.123c0.443-1.179,0.958-2.358,1.549-3.54
		c2.358-5.162,5.235-10.141,8.631-14.939c3.391-4.792,7.89-7.78,13.498-8.962c2.214-0.293,4.168,0.149,5.865,1.328
		c1.695,1.182,2.767,2.877,3.21,5.089c0.293,2.511-0.37,4.648-1.992,6.418c-8.265,9.001-13.205,19.331-14.827,30.984
		c0,6.345,2.063,10.733,6.195,13.168c4.129,2.434,8.998,3.357,14.606,2.767c5.605-0.589,10.547-2.214,14.828-4.869
		C1822.198,1039.866,1825.219,1037.432,1827.73,1034.48z"/>
	<path d="M1923.997,806.092c-15.346,35.264-29.36,71.116-42.048,107.555c-15.049,42.197-29.14,84.687-42.268,127.471
		c0.587-0.885,1.106-1.695,1.549-2.434c0.886-1.328,1.622-2.434,2.212-3.32c1.771-2.505,3.613-5.089,5.534-7.744
		c5.312-7.671,11.176-15.161,17.594-22.464c6.418-7.303,13.831-12.869,22.24-16.708c3.686-1.03,6.603-0.366,8.742,1.992
		c2.137,2.361,3.023,5.091,2.657,8.189c-0.37,3.098-2.401,5.312-6.087,6.64c-9.885,6.638-19.292,16.265-28.217,28.88
		c-8.928,12.615-16.562,24.308-22.905,35.077c-0.297,0.297-0.517,0.663-0.663,1.106c-0.149,0.297-0.37,0.663-0.663,1.106
		c-2.068,3.839-4.133,7.746-6.197,11.729c3.098-1.327,6.048-2.801,8.852-4.426c0.146,0,0.293-0.073,0.443-0.22
		c5.311-2.801,10.623-5.678,15.934-8.631c6.49-3.54,13.056-7.006,19.695-10.401c12.095-6.784,24.932-11.582,38.507-14.386
		c1.328-0.144,2.214,0.222,2.655,1.108c0.443,0.884,0.478,1.808,0.112,2.765c-0.37,0.962-1.145,1.515-2.324,1.661
		c-10.771,2.509-23.938,8.299-39.503,17.371c-15.568,9.074-29.029,17.3-40.388,24.676c-7.081,4.575-11.729,7.451-13.941,8.631
		c-1.181,0.59-2.434,0.884-3.763,0.884c-6.933,24.786-13.351,49.646-19.255,74.58c-5.456,23.458-9.958,46.989-13.498,70.597
		c-0.295,2.507-1.401,4.499-3.32,5.975c-1.915,1.474-4.129,2.064-6.64,1.771c-2.655-0.443-4.682-1.698-6.085-3.763
		c-1.401-2.068-1.881-4.353-1.439-6.86c6.345-28.624,13.5-57.024,21.467-85.203c27.738-97.816,57.906-194.892,90.513-291.237
		c7.819-23.015,15.858-45.954,24.123-68.826c1.769-3.54,4.239-5.422,7.413-5.642c3.171-0.222,5.827,0.85,7.966,3.208
		C1925.139,799.159,1925.471,802.258,1923.997,806.092z"/>
	<path d="M2046.157,1046.652c0.443-0.738,1.069-1.069,1.881-0.998c0.809,0.077,1.438,0.443,1.881,1.108
		c0.443,0.663,0.443,1.439,0,2.324c-0.886,1.182-1.771,2.434-2.655,3.761c-4.575,7.083-10.036,14.606-16.377,22.574
		c-6.345,7.966-13.354,14.421-21.024,19.363c-7.673,4.945-15.935,6.457-24.786,4.538c-7.083-3.393-12.321-8.631-15.712-15.714
		c-3.396-7.081-5.681-14.827-6.86-23.236c-0.299-1.179-0.996-1.881-2.104-2.104c-1.106-0.22-1.956,0.187-2.545,1.218v0.22
		c-2.212,3.396-4.353,7.01-6.417,10.845c-3.983,7.524-8.375,14.35-13.168,20.469c-4.796,6.124-10.733,9.704-17.814,10.735
		c-9.147-0.886-13.906-6.233-14.276-16.045c-0.366-9.81,2.031-21.136,7.193-33.971c5.162-12.835,11.469-24.194,18.922-34.081
		c7.447-9.883,14.347-15.342,20.691-16.376c3.243-1.031,6.896-0.665,10.956,1.106c4.056,1.769,7.227,4.316,9.515,7.634
		c2.287,3.32,2.397,6.827,0.333,10.513c2.801,1.625,4.056,4.502,3.763,8.631c-3.247,16.818-3.617,31.464-1.108,43.929
		c2.507,12.469,8.112,19.292,16.82,20.471c8.703,1.182,20.802-6.563,36.293-23.238
		C2035.756,1062.954,2041.288,1055.061,2046.157,1046.652z M1923.997,1080.511c6.638-8.998,12.835-19.032,18.589-30.098
		c5.456-10.324,11.286-19.841,17.483-28.547c0.144-0.295,0.256-0.736,0.331-1.328c0.073-0.589,0.073-1.142,0-1.659
		c-0.075-0.516-0.37-0.848-0.884-0.996c-0.519-0.146-1.367,0.075-2.546,0.663c-8.116,4.723-15.234,13.687-21.354,26.888
		C1929.492,1058.639,1925.619,1070.331,1923.997,1080.511z"/>
	<path d="M2140.434,1046.652c0.443-1.031,1.106-1.551,1.991-1.551s1.622,0.333,2.214,0.996c0.587,0.665,0.736,1.515,0.441,2.546
		c-5.609,12.099-12.835,23.938-21.687,35.518c-8.852,11.585-19.402,20.471-31.647,26.668c-6.197,2.95-12.762,4.205-19.695,3.763
		c-13.134-1.622-21.579-8.334-25.34-20.138c-3.763-11.802-4.869-25.082-3.32-39.835c1.549-14.752,3.724-27.294,6.528-37.622
		c12.538-51.195,32.678-99.217,60.416-144.07c1.031-1.472,2.065-3.021,3.1-4.646c3.54-5.457,7.596-10.623,12.172-15.492
		c4.57-4.869,10.104-8.333,16.598-10.401c3.391-0.736,6.748-0.183,10.068,1.659c3.32,1.848,5.422,4.536,6.307,8.078
		c1.474,9.592,0.589,19.439-2.655,29.543c-3.247,10.107-7.083,19.807-11.509,29.102c-1.625,3.69-3.174,7.303-4.646,10.844
		c-16.527,35.114-35.779,68.753-57.762,100.915c-1.476,2.068-3.025,4.205-4.646,6.418c-4.133,6.197-8.854,11.951-14.164,17.263
		c-3.542,15.197-3.176,30.096,1.106,44.702c2.212,6.787,6.341,11.363,12.392,13.721c6.048,2.363,12.095,1.92,18.146-1.327
		c10.326-6.343,19.217-14.642,26.668-24.897C2128.961,1068.156,2135.268,1057.572,2140.434,1046.652z M2092.41,950.163
		c-9.442,23.312-17.338,47.137-23.679,71.48c-0.592,1.92-1.106,3.912-1.549,5.977c-0.443,2.361-0.962,4.646-1.549,6.86
		c2.063-2.36,4.056-4.721,5.975-7.083c6.49-7.376,12.465-15.049,17.926-23.015c5.605-8.555,12.648-20.028,21.134-34.414
		c8.482-14.384,16.598-29.396,24.344-45.035c7.746-15.636,13.498-29.655,17.261-42.047c3.763-12.394,3.725-20.949-0.11-25.672
		c-1.625-1.472-3.58-1.583-5.865-0.333c-2.289,1.255-4.426,3.027-6.418,5.312c-1.991,2.29-3.507,4.095-4.538,5.422
		c-9.149,12.101-17.005,25.046-23.568,38.84c-6.567,13.797-12.725,27.701-18.479,41.717
		C2092.998,948.761,2092.705,949.427,2092.41,950.163z"/>
</g>
</svg>
