<?xml version="1.0" encoding="iso-8859-1"?>
<!-- Generator: Adobe Illustrator 25.0.0, SVG Export Plug-In . SVG Version: 6.00 Build 0)  -->
<svg version="1.1" id="Layer_1" xmlns="http://www.w3.org/2000/svg" xmlns:xlink="http://www.w3.org/1999/xlink" x="0px" y="0px"
	 viewBox="0 0 343.497 300.014" style="enable-background:new 0 0 343.497 300.014;" xml:space="preserve">
<g>
	<g>
		<path style="fill:#FFFFFF;" d="M151.194,136.327h-15.122v90.936h35.676v-70.4C171.748,145.531,162.547,136.327,151.194,136.327z"
			/>
		<path style="fill:#FFFFFF;" d="M116.488,136.327H80.755v35.735h35.666C116.443,160.151,116.466,148.241,116.488,136.327z"/>
		<path style="fill:#FFFFFF;" d="M116.636,56.732h3.052c20.101,0,40.202-0.04,60.306,0.054c4.158,0.02,8.348,0.339,12.466,0.918
			c12.357,1.759,23.418,6.775,32.74,14.994c18.736,16.49,26.896,37.227,23.079,62.104c-0.074,0.505-0.171,1.012-0.265,1.516
			c-3.218,18.399-13.084,32.851-28.506,43.519c-3.705,2.565-7.786,4.549-11.81,6.869v37.4c1.365-0.339,2.525-0.581,3.648-0.937
			c19.824-6.082,36.594-16.901,49.735-32.926c0.952-1.177,1.89-2.357,2.805-3.537c11.833-15.535,18.813-32.379,20.816-50.388
			c1.217-10.967,0.601-22.404-1.929-34.234c-5.503-25.924-19.597-46.551-41.066-62.032c-17.032-12.295-36.181-18.961-57.199-19.166
			c-22.669-0.205-45.354-0.186-68.02-0.129c-11.269,0.017-22.537,0.035-33.789,0.035c-0.673,0-1.328,0.114-1.887,0.188v79.381
			h35.824V56.732z"/>
		<rect x="80.753" y="194.874" style="fill:#FFFFFF;" width="35.733" height="35.649"/>
		<path style="fill:#FFFFFF;" d="M182.698,132.572c-10.969-15.271-30.106-14.38-31.392-14.299h-14.511V82.345h47.833
			c20.297,0,36.757,16.977,36.757,37.907c0,10.465-4.106,19.94-10.762,26.787c-5.756,5.934-13.411,9.911-21.946,10.861
			C189.069,155.129,190.43,143.339,182.698,132.572"/>
	</g>
	<g>
		<g>
			<path style="fill:#FFFFFF;" d="M32.056,263.362c0,4.602-3.406,7.439-8.903,7.439h-4.721v6.035h-3.884v-20.914h8.604
				C28.65,255.922,32.056,258.731,32.056,263.362z M28.143,263.362c0-2.629-1.763-4.152-5.168-4.152h-4.542v8.306h4.542
				C26.38,267.515,28.143,265.99,28.143,263.362z"/>
			<path style="fill:#FFFFFF;" d="M53.712,276.836l-4.272-6.125c-0.269,0.03-0.538,0.03-0.807,0.03h-4.721v6.095h-3.884v-20.914
				h8.604c5.497,0,8.903,2.809,8.903,7.439c0,3.167-1.614,5.497-4.452,6.603l4.81,6.872H53.712z M48.453,259.209h-4.541v8.335h4.541
				c3.406,0,5.169-1.554,5.169-4.183S51.859,259.209,48.453,259.209z"/>
			<path style="fill:#FFFFFF;" d="M81.34,273.579v3.257H65.655v-20.914h15.267v3.257H69.539v5.438h10.098v3.197H69.539v5.766H81.34z
				"/>
			<path style="fill:#FFFFFF;" d="M87.699,274.625l1.344-3.018c1.673,1.345,4.332,2.301,6.901,2.301
				c3.257,0,4.631-1.165,4.631-2.719c0-4.512-12.429-1.554-12.429-9.321c0-3.377,2.689-6.245,8.425-6.245
				c2.51,0,5.139,0.657,6.961,1.853l-1.225,3.018c-1.882-1.105-3.943-1.643-5.766-1.643c-3.227,0-4.541,1.254-4.541,2.838
				c0,4.451,12.398,1.554,12.398,9.231c0,3.347-2.719,6.215-8.455,6.215C92.688,277.135,89.431,276.119,87.699,274.625z"/>
			<path style="fill:#FFFFFF;" d="M116.286,259.209h-6.932v-3.287h17.747v3.287h-6.932v17.627h-3.884V259.209z"/>
			<path style="fill:#FFFFFF;" d="M133.818,255.922h3.884v20.914h-3.884V255.922z"/>
			<path style="fill:#FFFFFF;" d="M161.421,266.14h3.675v8.336c-2.182,1.763-5.229,2.659-8.187,2.659
				c-6.483,0-11.264-4.512-11.264-10.756s4.78-10.756,11.323-10.756c3.496,0,6.424,1.166,8.396,3.406l-2.45,2.391
				c-1.643-1.644-3.525-2.391-5.766-2.391c-4.452,0-7.589,3.018-7.589,7.35c0,4.243,3.137,7.35,7.559,7.35
				c1.494,0,2.958-0.299,4.303-1.075V266.14z"/>
			<path style="fill:#FFFFFF;" d="M189.677,273.579v3.257h-15.686v-20.914h15.267v3.257h-11.383v5.438h10.099v3.197h-10.099v5.766
				H189.677z"/>
		</g>
		<g>
			<g>
				<path style="fill:#FFFFFF;" d="M198.082,255.854h8.276c6.633,0,11.114,4.362,11.114,10.457s-4.481,10.457-11.114,10.457h-8.276
					V255.854z M206.239,275.394c5.915,0,9.709-3.765,9.709-9.083c0-5.317-3.794-9.082-9.709-9.082h-6.633v18.165H206.239z"/>
				<path style="fill:#FFFFFF;" d="M240.837,275.394v1.374h-14.431v-20.914h13.982v1.375H227.93v8.246h11.144v1.344H227.93v8.575
					H240.837z"/>
				<path style="fill:#FFFFFF;" d="M247.92,274.079l0.688-1.136c1.434,1.494,4.093,2.629,6.901,2.629
					c4.183,0,6.035-1.822,6.035-4.093c0-6.274-13.056-2.51-13.056-10.218c0-2.958,2.271-5.558,7.409-5.558
					c2.301,0,4.69,0.718,6.304,1.883l-0.567,1.225c-1.733-1.195-3.854-1.763-5.736-1.763c-4.063,0-5.886,1.883-5.886,4.183
					c0,6.274,13.056,2.569,13.056,10.158c0,2.958-2.36,5.527-7.528,5.527C252.431,276.917,249.444,275.752,247.92,274.079z"/>
				<path style="fill:#FFFFFF;" d="M271.882,255.854h1.524v20.914h-1.524V255.854z"/>
				<path style="fill:#FFFFFF;" d="M299.285,266.401h1.464v7.828c-1.882,1.792-4.601,2.688-7.469,2.688
					c-6.304,0-10.935-4.512-10.935-10.606s4.631-10.606,10.965-10.606c3.018,0,5.676,0.956,7.528,2.868l-0.956,1.017
					c-1.822-1.793-4.003-2.48-6.543-2.48c-5.438,0-9.471,3.944-9.471,9.202c0,5.229,4.033,9.202,9.471,9.202
					c2.211,0,4.242-0.538,5.945-1.912V266.401z"/>
				<path style="fill:#FFFFFF;" d="M328.118,255.854v20.914h-1.255l-14.251-18.165v18.165h-1.524v-20.914h1.285l14.222,18.165
					v-18.165H328.118z"/>
			</g>
		</g>
	</g>
</g>
</svg>
